<?xml version="1.0" encoding="UTF-8"?>
<svg width="316px" height="336px" viewBox="0 0 316 336" version="1.1" xmlns="http://www.w3.org/2000/svg" xmlns:xlink="http://www.w3.org/1999/xlink">
    <title>Artboard</title>
    <g id="Artboard" stroke="none" stroke-width="1" fill="none" fill-rule="evenodd">
        <g id="piggy-bank-942" transform="translate(-1.000000, 99.000000)">
            <path d="M129.559844,206.841367 L194.131684,206.841367 L194.131684,216.082803 C194.131684,222.103524 199.017076,227 205.020642,227 L237.465293,227 C243.468859,227 248.354251,222.103524 248.354251,216.082803 L248.354251,193.346891 L250.601179,191.784261 C273.391448,175.914022 287,149.985679 287,122.431069 C287,75.8880305 249.218454,38.0243056 202.780769,38.0243056 L120.910759,38.0243056 C117.968941,38.0243056 114.945994,38.1904676 111.923048,38.5157209 L107.79251,38.9611765 L106.423894,35.0333895 C101.915929,22.1081068 90.6107425,12.9373783 77.3901998,11 L77.3901998,50.2248392 L75.0233417,51.776863 C61.9721122,60.3395093 51.5417107,72.2854968 44.8503101,86.3208832 L43.4287843,89.3047285 L20.8889582,89.3047285 C14.8853927,89.3047285 10,94.2012046 10,100.21839 L10,132.736648 C10,138.753834 14.8853927,143.65031 20.8889582,143.65031 L39.3158833,143.65031 L40.4622751,147.334157 C46.0143387,165.208946 57.601714,180.994337 73.0938761,191.780726 L75.340804,193.343356 L75.340804,216.079267 C75.340804,222.099989 80.2261967,226.996465 86.2297623,226.996465 L118.674413,226.996465 C124.677979,226.996465 129.563371,222.099989 129.563371,216.079267 L129.563371,206.841367 L129.559844,206.841367 Z" id="Path" fill="#FFFFFF"></path>
            <path d="M291.2576,114 C288.356,114 286,111.686174 286,108.828738 C286,105.971303 288.352457,103.657477 291.2576,103.657477 C302.484914,103.657477 306.4848,94.1059752 306.4848,85.1712617 C306.4848,82.313826 308.837257,80 311.7424,80 C314.644,80 317,82.313826 317,85.1712617 C316.996457,102.145127 306.413943,114 291.2576,114 Z" id="Path" fill="#000000" fill-rule="nonzero"></path>
            <path d="M72.6388672,0 C91.1090668,0 107.758708,10.9254818 115.270275,27.5696327 C117.334281,27.431961 119.384173,27.3648902 121.402311,27.3648902 L203.292155,27.3648902 C255.513249,27.3648902 298,69.8701332 298,122.118294 C298,152.144836 283.601359,180.438127 259.344889,198.353094 L259.344889,215.625592 C259.348417,227.412404 249.765788,237 237.98861,237 L205.536099,237 C194.178779,237 184.860766,228.079582 184.215103,216.875227 L140.489948,216.875227 C139.840757,228.083112 130.526272,237 119.165424,237 L86.7129123,237 C74.9357344,237 65.3531055,227.412404 65.3531055,215.625592 L65.3531055,198.353094 C50.1288627,187.099318 38.4963416,171.461229 32.1702541,153.779246 L21.3598068,153.779246 C9.58262887,153.779246 0,144.19518 0,132.411898 L0,99.9425661 C0,88.1592839 9.58262887,78.5716882 21.3598068,78.5716882 L37.3673131,78.5716882 C44.4625512,64.9563139 54.7649357,53.2401025 67.4029978,44.4114659 L67.4029978,0 L72.6388672,0 Z M77.8747366,10.854881 L77.8747366,50.0207036 L75.5073051,51.5703923 C62.4529137,60.1201555 52.0199853,72.0481694 45.3269636,86.0624386 L43.9050934,89.0417945 L21.3598068,89.0417945 C15.3547868,89.0417945 10.4682106,93.9309035 10.4682106,99.939036 L10.4682106,132.408368 C10.4682106,138.4165 15.3547868,143.305609 21.3598068,143.305609 L39.791196,143.305609 L40.9378655,146.983914 C46.4912742,164.831809 58.0814567,180.593449 73.5773721,191.363609 L75.8248443,192.923888 L75.8248443,215.625592 C75.8248443,221.637255 80.7114205,226.526364 86.7164405,226.526364 L119.168952,226.526364 C125.173972,226.526364 130.060548,221.637255 130.060548,215.625592 L130.060548,206.401591 L194.644503,206.401591 L194.644503,215.629122 C194.644503,221.640785 199.531079,226.529894 205.536099,226.529894 L237.98861,226.529894 C243.99363,226.529894 248.880206,221.640785 248.880206,215.629122 L248.880206,192.927418 L251.127679,191.367139 C273.923469,175.520778 287.535318,149.631446 287.535318,122.118294 C287.535318,75.6452829 249.744619,37.8385266 203.295683,37.8385266 L121.405839,37.8385266 C118.463309,37.8385266 115.43963,38.0044386 112.41595,38.3292025 L108.284412,38.7739879 L106.915465,34.8521106 C102.406408,21.9462748 91.0984822,12.7893443 77.8747366,10.854881 Z" id="Shape" fill="#000000" fill-rule="nonzero"></path>
        </g>
        <circle id="eye" fill="#000000" cx="73.5920302" cy="172.433973" r="11.869808"></circle>
        <rect id="slot" fill="#000000" x="120.411828" y="144.737755" width="83.0886557" height="15.8264106" rx="4"></rect>
        <circle id="Oval" stroke="#000000" stroke-width="11" fill="#FFFFFF" cx="158.5" cy="53.5" r="48"></circle>
        <text id="€" font-family="Helvetica-Bold, Helvetica" font-size="77.0810811" font-weight="bold" fill="#000000">
            <tspan x="126.320418" y="81">€</tspan>
        </text>
    </g>
</svg>