<?xml version="1.0" encoding="UTF-8"?>
<svg width="196px" height="336px" viewBox="0 0 196 336" version="1.1" xmlns="http://www.w3.org/2000/svg" xmlns:xlink="http://www.w3.org/1999/xlink">
    <title>hand_003</title>
    <g id="hand_003" stroke="none" stroke-width="1" fill="none" fill-rule="evenodd">
        <circle id="Oval" stroke="#000000" stroke-width="11" fill="#FFFFFF" cx="81.5" cy="53.5" r="48"></circle>
        <path d="M238.173024,170.420186 C238.159961,173.192417 237.325981,175.432106 235.793668,177.006621 C234.25834,178.540944 231.796591,179.855216 227.112233,179.889379 L226.878116,179.88536 C215.444547,179.76378 200.734339,179.714545 186.183894,179.709521 C172.024314,179.699473 158.039568,179.732631 147.398783,179.766794 C147.43797,179.76177 147.477157,179.752727 147.521368,179.735646 C147.462085,179.755742 147.399788,179.766794 147.33749,179.766794 C147.31237,179.766794 147.287251,179.76378 147.262131,179.76177 C147.24103,179.758756 147.23902,179.758756 147.236006,179.755742 L147.229977,179.758756 L147.214905,179.752727 C147.207872,179.748708 147.195814,179.748708 147.183757,179.747703 C147.156627,179.745694 147.109402,179.741675 147.049114,179.741675 L126.536211,179.729617 C123.506753,179.734641 121.048018,182.184333 121.041989,185.217811 C121.048018,188.252293 123.501729,190.706004 126.532192,190.712033 L128.707575,190.712033 C128.722647,190.712033 128.794992,190.717057 128.904515,190.717057 C129.019061,190.718062 129.176814,190.715047 129.376769,190.712033 C129.376769,190.712033 153.969141,190.622606 157.384442,190.621601 C162.394353,191.19534 166.324108,195.483807 166.333151,200.708745 C166.321094,206.314499 161.782432,210.849142 156.163615,210.85718 L126.52114,210.652202 C123.491681,210.654212 121.03596,213.106918 121.027922,216.138386 C121.031941,219.174878 123.487662,221.629594 126.51913,221.634618 L127.111959,221.631604 C127.140094,221.634618 127.169233,221.634618 127.199377,221.639642 L127.211434,221.642656 C127.244592,221.645671 127.303875,221.64969 127.377225,221.64969 C127.531964,221.657728 127.751009,221.660743 128.036371,221.663757 C128.609105,221.673805 129.416961,221.684858 130.394627,221.692896 C132.339911,221.708973 134.92525,221.720026 137.50858,221.735098 C142.676243,221.760218 147.817783,221.77328 147.828835,221.77328 C153.4366,221.786342 157.969233,226.331033 157.985309,231.942816 C157.970238,237.336559 153.749091,241.736559 148.419655,242.05307 L148.32219,242.050055 C148.155394,242.036993 147.877066,242.033979 147.321414,242.016897 C142.925433,241.92747 126.531187,241.857135 126.512096,241.857135 C123.477614,241.862159 121.022898,244.317879 121.01285,247.350352 C121.020888,250.379811 123.469575,252.835532 126.511092,252.836536 L139.476974,253.006347 C145.084739,253.018404 149.62541,257.557066 149.631439,263.167845 C149.619381,268.77159 145.0767,273.306233 139.453864,273.31829 C139.44683,273.31829 134.107346,273.192691 133.724519,273.191686 L127.445552,273.187667 C111.822989,273.181638 96.0909043,272.695317 80.4311647,272.682255 C74.716892,272.683259 69.0166865,272.744552 63.3325577,272.916372 C62.97686,272.933453 62.6281959,272.933453 62.2845558,272.932449 C62.2463736,272.932449 62.2413496,272.927425 62.2403448,272.932449 C45.4602581,272.902305 33.5273053,260.547338 20.5553939,251.035943 C19.665145,250.376797 18.5960425,250.026123 17.4927769,250.019089 L17.4656474,250.01708 L17.4515803,250.020094 L-41.2696803,249.99196 C-41.5670998,249.990955 -41.8193035,249.754828 -41.8360402,249.460423 L-41.8360402,169.376203 C-41.8360402,169.362136 -41.8360402,169.350078 -41.8360402,169.34003 C-41.8360402,169.19333 -41.7861452,169.055673 -41.6886801,168.951174 C-41.5811669,168.831604 -41.4244188,168.769306 -41.2696803,168.769306 L22.2796232,168.798445 C25.0699406,168.800455 27.3699178,166.621053 27.5286755,163.870928 C27.5296803,163.813654 27.5326947,163.769443 27.5326947,163.791549 C27.5467618,163.56547 27.6060448,162.566703 27.7517401,161.063529 C27.9908815,158.481204 28.4661498,154.487142 29.2297945,151.05476 C29.6075976,149.341583 30.0758324,147.768073 30.5159329,146.695956 C30.7389975,146.148343 30.953019,145.748434 31.0977095,145.520345 C31.1117767,145.505274 31.124839,145.481158 31.1479493,145.45001 L31.2554624,145.334458 C37.3656246,140.518473 46.8559192,138.143136 57.9518772,132.437907 C69.0930509,126.664351 81.324428,117.024342 92.0476068,97.63882 C92.135024,97.4830767 92.2907673,97.3765683 92.4615826,97.3504436 C92.5731149,97.3343669 92.7107719,97.3243189 92.857472,97.3233142 C92.9237885,97.3213046 92.960966,97.3182902 93.0011578,97.3202998 L93.0634551,97.3182902 C94.6821809,97.3504436 98.0653277,98.7531383 100.68282,101.660012 C103.393759,104.589996 105.456604,108.705639 105.561103,113.888375 C105.695746,114.002921 105.778139,114.18278 105.764072,114.373691 C105.750005,114.534458 105.671631,114.669101 105.561103,114.763552 C105.456604,119.630782 103.557541,125.783145 98.1678169,132.901117 C95.0861087,136.96652 90.8699863,141.344415 85.1828431,145.973508 C85.0833684,146.056906 84.9557593,146.102122 84.8251359,146.101117 L73.1986458,146.096093 C70.2003357,146.096093 67.7637063,148.531718 67.7596872,151.534047 C67.7596872,154.535372 70.1922973,156.973006 73.192617,156.974011 L225.919541,157.047361 C229.689534,157.070471 232.498943,158.636947 234.72356,161.188123 C236.892914,163.702122 238.170009,167.236993 238.173024,170.384013 C238.169004,170.384013 238.173024,170.389037 238.170009,170.402099 L238.173024,170.420186 Z" id="Path-Copy" fill="#FFFFFF" transform="translate(98.168492, 185.318290) rotate(-90.000000) translate(-98.168492, -185.318290) "></path>
        <path d="M248,171.196 L248,171.132 C247.978,165.307 245.883,159.493 241.971,154.876 C238.107,150.298 232.124,146.967 225.06,146.962 C225.045,146.963 225.021,146.963 224.946,146.965 L101.607,146.904 C101.381,146.906 101.173,146.773 101.083,146.563 C100.995,146.356 101.039,146.115 101.194,145.95 C106.453,140.351 110.124,134.859 112.452,129.58 C114.642,124.597 115.644,119.805 115.658,115.283 L115.663,115.219 L115.659,115.219 C115.663,107.057 112.384,100.232 108.004,95.55 C103.571,90.878 98.211,87.987 92.588,87.891 C90.761,87.891 88.858,88.242 87.079,89.156 C85.313,90.055 83.73,91.556 82.722,93.392 C72.781,111.218 62.696,118.892 52.974,124.028 C43.266,129.19 33.394,131.322 24.654,138.016 C21.93,140.305 21.074,142.819 20.125,145.445 C18.761,149.727 18.001,154.775 17.577,158.518 C17.548,158.806 17.302,159.023 17.009,159.023 L-46.769,158.995 C-48.144,158.992 -49.487,159.55 -50.464,160.523 C-51.437,161.497 -51.995,162.84 -52,164.185 L-52.183,255.531 C-52.129,256.89 -51.516,258.239 -50.482,259.219 C-49.496,260.185 -48.143,260.745 -46.769,260.745 L12.202,260.769 C12.202,260.773 12.219,260.766 12.285,260.762 C14.312,260.823 18.443,263.215 22.528,265.921 C26.647,268.641 30.666,271.662 32.251,272.858 C39.629,278.445 46.403,283.508 56.058,284.016 C57.402,284.085 58.761,284.109642 60.124,284.109642 C64.456,284.113 68.835,283.846 73.161,283.846 C73.162,283.848 73.179,283.841 73.24,283.846 C73.304,283.846 73.372,283.841 73.439,283.842 C73.822,283.842 74.203,283.851 74.566,283.857 C77.815,283.905 81.047,283.924 84.287,283.927 C93.549,283.927 102.814,283.79 112.074,283.793 C113.704,283.793 115.332,283.801 116.954,283.813 C118.672,283.827 120.386,283.827 122.055,283.833 C122.067,283.833 122.101,283.83 122.143,283.831 C123.88,283.833 138.936,283.967 138.936,283.967 C150.299,283.964 159.506,274.771 159.516,263.411 C159.516,259.064 158.152,255.047 155.854,251.724 C155.759,251.589 155.727,251.421 155.769,251.255 C155.814,251.096 155.924,250.961 156.074,250.89 C163.014,247.587 167.814,240.526 167.825,232.33 C167.825,227.976 166.465,223.962 164.163,220.639 C164.071,220.506 164.038,220.332 164.083,220.173 C164.124,220.009 164.235,219.878 164.386,219.806 C171.328,216.504 176.127,209.443 176.139,201.246 C176.137,197.91 175.335,194.773 173.929,191.993 C173.842,191.817 173.849,191.607 173.953,191.437 C174.056,191.27 174.238,191.166 174.434,191.166 C178.051,191.166 181.73,191.164 185.429,191.166 C199.886,191.175 214.505,191.221 225.815,191.342 L226.326,191.344 C226.326,191.344 226.34,191.344 226.338,191.341 C233.095,191.344 238.798,189.099 242.561,185.196 C246.356,181.306 247.989,176.169 248,171.236 C247.996,171.215 247.996,171.208 248,171.208 L248,171.196 Z M237.175,171.097 C237.162,173.856 236.332,176.085 234.807,177.652 C233.279,179.179 230.829,180.487 226.167,180.521 L225.934,180.517 C214.555,180.396 199.915,180.347 185.434,180.342 C171.342,180.332 157.424,180.365 146.834,180.399 C146.873,180.394 146.912,180.385 146.956,180.368 C146.897,180.388 146.835,180.399 146.773,180.399 C146.748,180.399 146.723,180.396 146.698,180.394 C146.677,180.391 146.675,180.391 146.672,180.388 L146.666,180.391 L146.651,180.385 C146.644,180.381 146.632,180.381 146.62,180.38 C146.593,180.378 146.546,180.374 146.486,180.374 L126.071,180.362 C123.056,180.367 120.609,182.805 120.603,185.824 C120.609,188.844 123.051,191.286 126.067,191.292 L128.232,191.292 C128.247,191.292 128.319,191.297 128.428,191.297 C128.542,191.298 128.699,191.295 128.898,191.292 C128.898,191.292 153.373,191.203 156.772,191.202 C161.758,191.773 165.669,196.041 165.678,201.241 C165.666,206.82 161.149,211.333 155.557,211.341 L126.056,211.137 C123.041,211.139 120.597,213.58 120.589,216.597 C120.593,219.619 123.037,222.062 126.054,222.067 L126.644,222.064 C126.672,222.067 126.701,222.067 126.731,222.072 L126.743,222.075 C126.776,222.078 126.835,222.082 126.908,222.082 C127.062,222.09 127.28,222.093 127.564,222.096 C128.134,222.106 128.938,222.117 129.911,222.125 C131.847,222.141 134.42,222.152 136.991,222.167 C142.134,222.192 147.251,222.205 147.262,222.205 C152.843,222.218 157.354,226.741 157.37,232.326 C157.355,237.694 153.154,242.073 147.85,242.388 L147.753,242.385 C147.587,242.372 147.31,242.369 146.757,242.352 C142.382,242.263 126.066,242.193 126.047,242.193 C123.027,242.198 120.584,244.642 120.574,247.66 C120.582,250.675 123.019,253.119 126.046,253.12 L138.95,253.289 C144.531,253.301 149.05,257.818 149.056,263.402 C149.044,268.979 144.523,273.492 138.927,273.504 C138.92,273.504 133.606,273.379 133.225,273.378 L126.976,273.374 C111.428,273.368 95.771,272.884 80.186,272.871 C74.499,272.872 68.826,272.933 63.169,273.104 C62.815,273.121 62.468,273.121 62.126,273.12 C62.088,273.12 62.083,273.115 62.082,273.12 C45.382,273.09 33.506,260.794 20.596,251.328 C19.71,250.672 18.646,250.323 17.548,250.316 L17.521,250.314 L17.507,250.317 L-40.934,250.289 C-41.23,250.288 -41.481,250.053 -41.4976569,249.76 L-41.4976569,170.058 C-41.4976569,170.044 -41.4976569,170.032 -41.4976569,170.022 C-41.4976569,169.876 -41.448,169.739 -41.351,169.635 C-41.244,169.516 -41.088,169.454 -40.934,169.454 L22.312,169.483 C25.089,169.485 27.378,167.316 27.536,164.579 C27.537,164.522 27.54,164.478 27.54,164.5 C27.554,164.275 27.613,163.281 27.758,161.785 C27.996,159.215 28.469,155.24 29.229,151.824 C29.605,150.119 30.071,148.553 30.509,147.486 C30.731,146.941 30.944,146.543 31.088,146.316 C31.102,146.301 31.115,146.277 31.138,146.246 L31.245,146.131 C37.326,141.338 46.771,138.974 57.814,133.296 C68.902,127.55 81.075,117.956 91.747,98.663 C91.834,98.508 91.989,98.402 92.159,98.376 C92.27,98.36 92.407,98.35 92.553,98.349 C92.619,98.347 92.656,98.344 92.696,98.346 L92.758,98.344 C94.369,98.376 97.736,99.772 100.341,102.665 C103.039,105.581 105.092,109.677 105.196,114.835 C105.33,114.949 105.412,115.128 105.398,115.318 C105.384,115.478 105.306,115.612 105.196,115.706 C105.092,120.55 103.202,126.673 97.838,133.757 C94.771,137.803 90.575,142.16 84.915,146.767 C84.816,146.85 84.689,146.895 84.559,146.894 L72.988,146.889 C70.004,146.889 67.579,149.313 67.575,152.301 C67.575,155.288 69.996,157.714 72.982,157.715 L224.98,157.788 C228.732,157.811 231.528,159.37 233.742,161.909 C235.901,164.411 237.172,167.929 237.175,171.061 C237.171,171.061 237.175,171.066 237.172,171.079 L237.175,171.097 Z" id="Fill-1" fill="#0A0B09" transform="translate(97.908500, 186.000337) rotate(-90.000000) translate(-97.908500, -186.000337) "></path>
    </g>
</svg>